<svg width="24" height="24" viewBox="0 0 24 24" fill="none" xmlns="http://www.w3.org/2000/svg">
<g clip-path="url(#clip0)">
<path d="M12 24C12.7956 24 13.5587 23.6839 14.1213 23.1213C14.6839 22.5587 15 21.7956 15 21H9C9 21.7956 9.31607 22.5587 9.87868 23.1213C10.4413 23.6839 11.2044 24 12 24ZM13.4925 1.6485C13.5134 1.43993 13.4904 1.22929 13.4249 1.03016C13.3595 0.831031 13.253 0.647835 13.1124 0.492387C12.9717 0.33694 12.8001 0.212692 12.6085 0.127657C12.4169 0.042622 12.2096 -0.00131226 12 -0.00131226C11.7904 -0.00131226 11.5831 0.042622 11.3915 0.127657C11.1999 0.212692 11.0283 0.33694 10.8876 0.492387C10.747 0.647835 10.6405 0.831031 10.5751 1.03016C10.5096 1.22929 10.4866 1.43993 10.5075 1.6485C8.81208 1.99335 7.28793 2.91354 6.19315 4.25325C5.09836 5.59296 4.50022 7.26986 4.5 9C4.5 10.647 3.75 18 1.5 19.5H22.5C20.25 18 19.5 10.647 19.5 9C19.5 5.37 16.92 2.34 13.4925 1.6485Z" fill="#3D3D3D"/>
</g>
<defs>
<clipPath id="clip0">
<rect width="24" height="24" fill="white"/>
</clipPath>
</defs>
</svg>
