<svg width="100" height="40" viewBox="0 0 100 40" fill="none" xmlns="http://www.w3.org/2000/svg">
<path d="M15.6792 4.22025C7.01982 4.22024 7.57029e-07 11.5082 0 20.4983C-7.57027e-07 29.4883 7.01982 36.7763 15.6792 36.7763L15.6792 4.22025Z" fill="#00FF00" fill-opacity="0.8"/>
<path d="M15.6793 36.7763C11.6826 36.7763 8.4427 33.2673 8.4427 28.9387C8.4427 24.6101 11.6826 21.1011 15.6793 21.1011L15.6793 36.7763Z" fill="#90FF90"/>
<path d="M15.6792 36.7763C20.675 36.7763 24.7249 33.2673 24.7249 28.9387C24.7249 24.6101 20.675 21.1011 15.6792 21.1011L15.6792 36.7763Z" fill="#40FF40" fill-opacity="0.8"/>
<path d="M36.5974 9.96237C38.4568 11.0276 38.4568 13.6908 36.5974 14.7561L19.8628 24.3435C18.0034 25.4088 15.6792 24.0772 15.6792 21.9467L15.6792 2.77179C15.6792 0.641243 18.0034 -0.690347 19.8628 0.374925L36.5974 9.96237Z" fill="#00FF00"/>
<path d="M28.2289 36.2424H29.795V29.7918H32.0919C32.6487 29.7918 33.0907 29.9588 33.4178 30.2928C33.7519 30.6268 33.919 31.0687 33.919 31.6184V36.2424H35.4851V31.6184C35.4851 30.512 35.0431 29.6944 34.1591 29.1655C35.0431 28.5184 35.4851 27.5442 35.4851 26.243V24.1345C35.4851 23.0699 35.1753 22.214 34.5558 21.5668C33.9364 20.9127 33.1151 20.5857 32.0919 20.5857H28.2289V36.2424ZM29.795 28.2261V22.1513H32.0919C32.6487 22.1513 33.0907 22.3323 33.4178 22.6941C33.7519 23.0559 33.919 23.5361 33.919 24.1345V26.243C33.919 26.8344 33.7519 27.3146 33.4178 27.6834C33.0907 28.0452 32.6487 28.2261 32.0919 28.2261H29.795ZM41.8166 36.4929C42.8815 36.4929 43.7411 36.1554 44.3954 35.4804C45.0497 34.7985 45.3768 33.9078 45.3768 32.8083V32.5996H43.8629V32.8605C43.8629 33.4938 43.6785 34.0052 43.3096 34.3949C42.9477 34.7846 42.45 34.9794 41.8166 34.9794C41.1832 34.9794 40.6786 34.7846 40.3027 34.3949C39.9269 34.0052 39.7389 33.4938 39.7389 32.8605V30.8043H45.3768V28.3305C45.3768 27.2311 45.0497 26.3439 44.3954 25.6689C43.7411 24.9939 42.8815 24.6564 41.8166 24.6564C41.1136 24.6564 40.4906 24.8095 39.9477 25.1157C39.4048 25.4218 38.9803 25.8533 38.674 26.41C38.3747 26.9597 38.2251 27.5999 38.2251 28.3305V32.8083C38.2251 33.9078 38.5591 34.7985 39.2273 35.4804C39.8955 36.1554 40.7586 36.4929 41.8166 36.4929ZM41.8166 26.1699C42.45 26.1699 42.9477 26.3647 43.3096 26.7544C43.6785 27.1371 43.8629 27.6451 43.8629 28.2783V29.343H39.7389V28.2783C39.7389 27.6451 39.9269 27.1371 40.3027 26.7544C40.6786 26.3647 41.1832 26.1699 41.8166 26.1699ZM51.1967 36.4929C52.2617 36.4929 53.1213 36.1554 53.7756 35.4804C54.4298 34.7985 54.757 33.9078 54.757 32.8083V32.5996H53.2431V32.8605C53.2431 33.4938 53.0586 34.0052 52.6897 34.3949C52.3278 34.7846 51.8301 34.9794 51.1967 34.9794C50.5634 34.9794 50.0587 34.7846 49.6829 34.3949C49.307 34.0052 49.1191 33.4938 49.1191 32.8605V28.2783C49.1191 27.6451 49.307 27.1371 49.6829 26.7544C50.0587 26.3647 50.5634 26.1699 51.1967 26.1699C51.8301 26.1699 52.3278 26.3647 52.6897 26.7544C53.0586 27.1371 53.2431 27.6451 53.2431 28.2783V28.5393H54.757V28.3305C54.757 27.2311 54.4298 26.3439 53.7756 25.6689C53.1213 24.9939 52.2617 24.6564 51.1967 24.6564C50.4938 24.6564 49.8708 24.8095 49.3279 25.1157C48.785 25.4218 48.3604 25.8533 48.0541 26.41C47.7549 26.9597 47.6052 27.5999 47.6052 28.3305V32.8083C47.6052 33.9078 47.9393 34.7985 48.6075 35.4804C49.2757 36.1554 50.1388 36.4929 51.1967 36.4929ZM58.0369 40H59.6656L64.0402 24.9174H62.3697L59.9057 33.8208L57.4105 24.9174H55.7607L59.0601 36.472L58.0369 40ZM68.8356 36.4929C69.9005 36.4929 70.7601 36.1554 71.4144 35.4804C72.0687 34.7985 72.3958 33.9078 72.3958 32.8083V32.5996H70.8819V32.8605C70.8819 33.4938 70.6975 34.0052 70.3286 34.3949C69.9666 34.7846 69.469 34.9794 68.8356 34.9794C68.2022 34.9794 67.6976 34.7846 67.3217 34.3949C66.9459 34.0052 66.7579 33.4938 66.7579 32.8605V28.2783C66.7579 27.6451 66.9459 27.1371 67.3217 26.7544C67.6976 26.3647 68.2022 26.1699 68.8356 26.1699C69.469 26.1699 69.9666 26.3647 70.3286 26.7544C70.6975 27.1371 70.8819 27.6451 70.8819 28.2783V28.5393H72.3958V28.3305C72.3958 27.2311 72.0687 26.3439 71.4144 25.6689C70.7601 24.9939 69.9005 24.6564 68.8356 24.6564C68.1326 24.6564 67.5096 24.8095 66.9667 25.1157C66.4238 25.4218 65.9992 25.8533 65.693 26.41C65.3937 26.9597 65.244 27.5999 65.244 28.3305V32.8083C65.244 33.9078 65.5781 34.7985 66.2463 35.4804C66.9145 36.1554 67.7776 36.4929 68.8356 36.4929ZM77.2417 36.4929C78.3832 36.4929 79.2463 36.1241 79.8309 35.3865V36.2424H81.3448V28.3305C81.3448 27.5999 81.1917 26.9597 80.8854 26.41C80.5861 25.8533 80.165 25.4218 79.6221 25.1157C79.0862 24.8095 78.4632 24.6564 77.7533 24.6564C76.6883 24.6564 75.8287 24.9939 75.1744 25.6689C74.5202 26.3439 74.193 27.2311 74.193 28.3305V28.5915H75.7069V28.2783C75.7069 27.6451 75.8879 27.1371 76.2498 26.7544C76.6187 26.3647 77.1199 26.1699 77.7533 26.1699C78.3866 26.1699 78.8913 26.3647 79.2671 26.7544C79.643 27.1371 79.8309 27.6451 79.8309 28.2783V28.5497C79.8309 28.9185 79.7161 29.2038 79.4864 29.4056C79.2567 29.6074 78.9539 29.7675 78.5781 29.8858C78.2022 29.9971 77.7915 30.1049 77.3461 30.2093C76.9076 30.3137 76.476 30.4494 76.0514 30.6164C75.6965 30.7556 75.3589 30.94 75.0387 31.1696C74.7255 31.3992 74.468 31.6985 74.2661 32.0673C74.0643 32.4291 73.9633 32.8849 73.9633 33.4346C73.9633 34.3183 74.2487 35.049 74.8195 35.6265C75.3902 36.2041 76.1976 36.4929 77.2417 36.4929ZM77.5549 35.0525C76.8937 35.0525 76.3821 34.8924 76.0201 34.5723C75.6582 34.2453 75.4772 33.8278 75.4772 33.3198C75.4772 32.8536 75.6095 32.4952 75.874 32.2447C76.1454 31.9872 76.4934 31.7889 76.918 31.6497C77.3913 31.4897 77.889 31.3644 78.411 31.274C78.933 31.1835 79.4063 31.0026 79.8309 30.7312V32.7353C79.8309 33.4868 79.6256 34.0609 79.2149 34.4575C78.8112 34.8541 78.2579 35.0525 77.5549 35.0525ZM87.1622 36.4929C88.1993 36.4929 89.0276 36.1902 89.647 35.5848C90.2735 34.9724 90.5867 34.0991 90.5867 32.9649C90.5867 32.1786 90.437 31.5906 90.1378 31.2009C89.8385 30.8043 89.4278 30.5155 88.9058 30.3346C88.3837 30.1537 87.7817 29.9936 87.0996 29.8544C86.4662 29.7222 85.9755 29.5552 85.6274 29.3534C85.2794 29.1516 85.1054 28.7446 85.1054 28.1322C85.1054 27.492 85.2864 27.0049 85.6483 26.6709C86.0103 26.3369 86.487 26.1699 87.0787 26.1699C87.6842 26.1699 88.168 26.3369 88.5299 26.6709C88.8918 26.998 89.0728 27.4398 89.0728 27.9965V28.4036H90.5867V28.0487C90.5867 27.0328 90.2665 26.2151 89.6262 25.5958C88.9928 24.9695 88.1367 24.6564 87.0578 24.6564C86.0207 24.6564 85.182 24.9626 84.5416 25.5749C83.9082 26.1873 83.5915 27.0675 83.5915 28.2157C83.5915 28.9881 83.7377 29.5691 84.03 29.9588C84.3293 30.3485 84.7435 30.6338 85.2725 30.8147C85.8015 30.9887 86.4105 31.1487 87.0996 31.2949C87.719 31.4271 88.2028 31.5941 88.5508 31.7959C88.8988 31.9977 89.0728 32.4082 89.0728 33.0275C89.0728 33.6608 88.8988 34.1444 88.5508 34.4784C88.2028 34.8124 87.733 34.9794 87.1413 34.9794C86.5288 34.9794 86.0346 34.8124 85.6588 34.4784C85.2899 34.1444 85.1054 33.7025 85.1054 33.1528V32.7248H83.5915V33.0902C83.5915 34.1131 83.9152 34.9377 84.5625 35.5639C85.2168 36.1832 86.0834 36.4929 87.1622 36.4929ZM93.0048 36.2424H94.5187V28.2679C94.5187 27.6277 94.6997 27.1163 95.0616 26.7335C95.4236 26.3508 95.9108 26.1595 96.5233 26.1595C97.1149 26.1595 97.5882 26.3508 97.9432 26.7335C98.3052 27.1163 98.4861 27.6277 98.4861 28.2679V36.2424H100V28.1113C100 26.991 99.6972 26.1351 99.0917 25.5436C98.4931 24.9452 97.7448 24.646 96.847 24.646C95.8447 24.646 95.0686 24.9974 94.5187 25.7002V20.5857H93.0048V36.2424Z" fill="black"/>
</svg>
