<svg width="48" height="48" viewBox="0 0 48 48" fill="none" xmlns="http://www.w3.org/2000/svg">
<g clip-path="url(#clip0)">
<path d="M12.6868 41.11L13.4715 41.4979C16.7415 43.437 20.4035 44.342 24.0658 44.342C35.5755 44.342 44.9925 35.0341 44.9925 23.6577C44.9925 18.2281 42.7689 12.9277 38.8453 9.04937C34.9215 5.17101 29.6897 2.97339 24.0658 2.97339C12.5561 2.97339 3.13892 12.2813 3.2698 23.787C3.2698 27.6652 4.44692 31.4144 6.40873 34.6462L6.93186 35.4219L4.83936 43.0493L12.6868 41.11Z" fill="#00E676"/>
<path d="M41.0687 6.98094C36.6217 2.45634 30.4746 0 24.1965 0C10.8559 0 0.13087 10.7299 0.261558 23.7869C0.261558 27.9238 1.43868 31.9315 3.40068 35.5511L1.5 46.5L12.6868 44.6005C16.2182 46.5398 20.1418 47.4448 24.0658 47.4448C37.2757 47.4448 48.0007 36.7146 48.0007 23.6579C48.0007 17.3232 45.5154 11.3764 41.0687 6.98094ZM24.1965 43.4372C20.6651 43.4372 17.1337 42.5324 14.1255 40.7225L13.3408 40.3346L5.75493 42.2737L7.71674 34.9051L7.19362 34.1293C1.43868 24.9507 4.18537 12.7984 13.6024 7.11012C23.0194 1.42202 35.1831 4.1369 40.938 13.4448C46.6927 22.7527 43.9461 34.7755 34.5292 40.4638C31.5208 42.4029 27.8587 43.4372 24.1965 43.4372ZM35.7062 29.0876L34.2675 28.4412C34.2675 28.4412 32.175 27.5362 30.867 26.8898C30.7361 26.8898 30.6054 26.7605 30.4746 26.7605C30.0821 26.7605 29.8206 26.8898 29.559 27.0192C29.559 27.0192 29.4283 27.1484 27.5972 29.2168C27.4663 29.4753 27.2047 29.6047 26.9432 29.6047H26.8123C26.6816 29.6047 26.4201 29.4753 26.2892 29.3462L25.6352 29.0876C24.1965 28.4412 22.8887 27.6654 21.8422 26.6313C21.5807 26.3728 21.1882 26.1142 20.9267 25.8557C20.0111 24.9507 19.0956 23.9164 18.4417 22.7529L18.3109 22.4944C18.1802 22.365 18.1802 22.2359 18.0493 21.9773C18.0493 21.7188 18.0493 21.4603 18.1802 21.3309C18.1802 21.3309 18.7033 20.6845 19.0956 20.2968C19.3573 20.0381 19.488 19.6503 19.7496 19.3918C20.0111 19.0039 20.142 18.4869 20.0111 18.099C19.8804 17.4525 18.3109 13.9621 17.9186 13.1865C17.6569 12.7986 17.3955 12.6694 17.0031 12.54H15.5644C15.3026 12.54 15.0412 12.6694 14.7795 12.6694L14.6486 12.7986C14.3871 12.9279 14.1255 13.1865 13.8639 13.3156C13.6024 13.5744 13.4715 13.8327 13.2099 14.0914C12.2944 15.2549 11.7712 16.6769 11.7712 18.099C11.7712 19.1331 12.0328 20.1674 12.4252 21.0724L12.5561 21.4603C13.7332 23.9164 15.3026 26.1142 17.3955 28.0533L17.9186 28.5704C18.3109 28.9583 18.7033 29.2168 18.9649 29.6045C21.7116 31.9317 24.8505 33.6122 28.3819 34.5172C28.7743 34.6464 29.2974 34.6464 29.6899 34.7757H30.9977C31.6517 34.7757 32.4364 34.5172 32.9597 34.2587C33.3519 34.0001 33.6135 34.0001 33.8751 33.7416L34.1368 33.4829C34.3984 33.2243 34.6599 33.0952 34.9215 32.8366C35.1831 32.5781 35.4446 32.3196 35.5755 32.0608C35.8371 31.5438 35.9677 30.8974 36.0986 30.2511V29.3462C36.0986 29.3462 35.9677 29.2168 35.7062 29.0876Z" fill="white"/>
</g>
<defs>
<clipPath id="clip0">
<rect width="48" height="48" fill="white"/>
</clipPath>
</defs>
</svg>
